<!DOCTYPE svg PUBLIC "-//W3C//DTD SVG 1.1//EN" "http://www.w3.org/Graphics/SVG/1.1/DTD/svg11.dtd">
<!-- Uploaded to: SVG Repo, www.svgrepo.com, Transformed by: SVG Repo Mixer Tools -->
<svg fill="#c14679" width="800px" height="800px" viewBox="-3 -3 36.00 36.00" xmlns="http://www.w3.org/2000/svg">
<g id="SVGRepo_bgCarrier" stroke-width="0">
<path transform="translate(-3, -3), scale(1.125)" d="M16,24.909402925521135C17.62747771317327,24.386942542551324,19.196735494113486,26.059721708621208,20.90186390497132,26.17882528175857C23.37839612841971,26.351811571192414,26.882880551001705,27.840511037423056,28.244528695933145,25.764685794413648C29.684253584883056,23.569832976822056,26.69306447049802,20.848745364023547,26.070923086957364,18.298622475683125C25.7116542326601,16.825999447140568,25.205373317004845,15.377366690697004,25.342084851995576,13.867730095332941C25.55290272576729,11.539774541149479,27.705977106170028,9.416509790945579,27.079209345093105,7.164625377431003C26.500719992273506,5.086198186536107,24.453406469107318,2.8793750820710806,22.296463226973277,2.9252593864590946C19.68945214350804,2.980717911171266,18.512130509671024,6.701181616476204,16,7.400311604142189C14.372806442139998,7.853162205517118,12.874621209050419,5.8708016925203275,11.191814998402446,6.015700965504482C9.374689719732576,6.172165881152143,7.808480219925379,7.263210469166756,6.2672119328265925,8.238360516796996C4.297115744670007,9.484827084491915,1.6287497517455376,10.342362375965957,0.8694975822088669,12.546561558894785C0.12897143783197618,14.696396867721175,1.4723006542090373,17.06312715969035,2.535043533009633,19.073288446537997C3.4834355082637036,20.867156814363977,5.565365898187272,21.742947291337003,6.641106611081886,23.46346842704965C7.888021878419078,25.45776319174598,6.980901680692875,29.542469918485182,9.30534569369978,29.901592909687533C12.091320701879983,30.332021723095867,13.31588796370889,25.77106892012344,16,24.909402925521135" fill="#f0f0f0" strokewidth="0"/>
</g>
<g id="SVGRepo_tracerCarrier" stroke-linecap="round" stroke-linejoin="round"/>
<g id="SVGRepo_iconCarrier">
<path d="M22.5 19c-1.375 0-2.5 1.125-2.5 2.5s1.125 2.5 2.5 2.5c.574 0 1.06-.246 1.5-.6.44.354.926.6 1.5.6 1.375 0 2.5-1.125 2.5-2.5S26.875 19 25.5 19c-.574 0-1.06.24-1.5.595-.44-.355-.926-.594-1.5-.595zm0 1c.43 0 .84.186 1.125.51.2.225.55.225.75 0 .285-.324.694-.51 1.125-.51.834 0 1.5.666 1.5 1.5s-.666 1.5-1.5 1.5c-.43 0-.84-.186-1.125-.51-.2-.225-.55-.225-.75 0-.285.324-.694.51-1.125.51-.834 0-1.5-.666-1.5-1.5s.666-1.5 1.5-1.5zm-7 1h2c.277 0 .5.223.5.5s-.223.5-.5.5h-2c-.277 0-.5-.223-.5-.5s.223-.5.5-.5zm-4 0h2c.277 0 .5.223.5.5s-.223.5-.5.5h-2c-.277 0-.5-.223-.5-.5s.223-.5.5-.5zm-4 0h2c.277 0 .5.223.5.5s-.223.5-.5.5h-2c-.277 0-.5-.223-.5-.5s.223-.5.5-.5zm7-5h12c.277 0 .5.223.5.5s-.223.5-.5.5h-12c-.277 0-.5-.223-.5-.5s.223-.5.5-.5zm5-3h7c.277 0 .5.223.5.5s-.223.5-.5.5h-7c-.277 0-.5-.223-.5-.5s.223-.5.5-.5zm-5 0h3c.277 0 .5.223.5.5s-.223.5-.5.5h-3c-.277 0-.5-.223-.5-.5s.223-.5.5-.5zm-7-1c-.276 0-.5.224-.5.5v5c0 .276.224.5.5.5h4c.276 0 .5-.224.5-.5v-5c0-.276-.224-.5-.5-.5zm.5 1h3v4H8zm-1.5-3c-.822 0-1.5.678-1.5 1.5v13c0 .822.678 1.5 1.5 1.5h22c.822 0 1.5-.678 1.5-1.5v-13c0-.822-.678-1.5-1.5-1.5zm0 1h22c.286 0 .5.214.5.5v13c0 .286-.214.5-.5.5h-22c-.286 0-.5-.214-.5-.5v-13c0-.286.214-.5.5-.5zm-5-7C.678 4 0 4.678 0 5.5v13c0 .822.678 1.5 1.5 1.5h2c.672 0 .653-1 0-1h-2c-.286 0-.5-.214-.5-.5V12h1.5c.277 0 .5-.223.5-.5s-.223-.5-.5-.5H1V8h24v.5c0 .672 1 .657 1 0v-3c0-.822-.678-1.5-1.5-1.5zm0 1h23c.286 0 .5.214.5.5V7H1V5.5c0-.286.214-.5.5-.5z"/>
</g>
</svg>