<!DOCTYPE svg PUBLIC "-//W3C//DTD SVG 1.1//EN" "http://www.w3.org/Graphics/SVG/1.1/DTD/svg11.dtd">
<!-- Uploaded to: SVG Repo, www.svgrepo.com, Transformed by: SVG Repo Mixer Tools -->
<svg fill="#c14679" height="800px" width="800px" version="1.1" id="Layer_1" xmlns="http://www.w3.org/2000/svg" xmlns:xlink="http://www.w3.org/1999/xlink" viewBox="-39.26 -39.26 471.12 471.12" xml:space="preserve">
<g id="SVGRepo_bgCarrier" stroke-width="0">
<path transform="translate(-39.26, -39.26), scale(14.7225)" d="M16,27.01430623895592C17.500086630916428,26.724356472905086,18.432030962562973,25.21735325609809,19.81002906278924,24.55746538466845C21.145533483076818,23.91792664434382,23.01052893102006,24.304634449775207,23.985557308959216,23.190228096959054C24.96361334431032,22.07236129034446,24.22154086238543,20.227694618126634,24.796523329123453,18.858163688004467C25.43465314795583,17.338224255273225,26.823228337181252,16.287543568959276,27.51229677635734,14.790008851169452C28.51362874918901,12.613839826302508,30.71434132237301,10.251427570114732,29.769716747782166,8.050050329003072C28.882516181700108,5.982495464341233,25.8040752618529,5.79936562074329,23.564067437497968,5.588954333803082C21.619003811778025,5.40624812348608,19.737777673641453,7.669087522073099,17.92628159821539,6.937557593701625C15.552607605448973,5.979005384033028,15.428452297947665,1.3209476664967776,12.869046662634819,1.2700226576596947C10.659372949687368,1.2260563352423555,10.920135958218836,5.272341500869331,9.290915931897233,6.765737985742158C7.893519191374343,8.046637647269943,5.516603306415632,7.816166700609388,4.219470228865157,9.198507965438889C2.8883947640468444,10.617021280275596,2.402693064703859,12.624811792190904,2.0060222003229633,14.52917366504008C1.5887100026877796,16.532631719595447,1.3847999864828078,18.60522061036614,1.8447257161059554,20.59932742041632C2.319335429766437,22.657099797929984,2.865375701363674,25.123090672523702,4.693329509303988,26.18057183736572C6.670927030992141,27.324622699996574,9.193969212492156,26.001011356175127,11.472459135310348,26.169023277447025C13.020473249102077,26.283171171106556,14.475990890044605,27.308879949422867,16,27.01430623895592" fill="#ffffff" strokewidth="0"/>
</g>
<g id="SVGRepo_tracerCarrier" stroke-linecap="round" stroke-linejoin="round"/>
<g id="SVGRepo_iconCarrier"> <g> <g> <path d="M323.071,0H117.366C98.101,0,82.521,15.58,82.521,34.844v13.059H69.463c-19.265,0-34.844,15.58-34.844,34.844V299.83 c0,9.244,3.62,18.101,10.214,24.63l57.923,57.923c6.594,6.594,15.321,10.214,24.63,10.214h147.846 c19.265,0,34.844-15.58,34.844-34.844v-13.059h13.059c19.265,0,34.844-15.58,34.844-34.844V34.844 C357.915,15.58,342.206,0,323.071,0z M106.57,355.297l-34.715-34.715h34.715V355.297z M288.162,357.689 c0,7.176-5.818,13.059-13.059,13.059H128.291v-61.026c0-6.012-4.849-10.925-10.925-10.925H56.339V82.683 c0-7.176,5.883-13.059,13.059-13.059h205.705c7.176,0,13.059,5.883,13.059,13.059V357.689z M336.129,309.85H336v0 c0,7.176-5.883,13.059-13.059,13.059h-13.059V82.683c0-19.265-15.58-34.844-34.844-34.844H104.307V34.844 c0-7.176,5.883-13.059,13.059-13.059h205.705c7.176,0,13.059,5.883,13.059,13.059V309.85z"/> </g> </g> <g> <g> <path d="M251.248,108.477H93.382c-6.012,0-10.925,4.849-10.925,10.925c0,6.077,4.849,10.925,10.925,10.925h157.867 c6.012,0,10.925-4.849,10.925-10.925C262.174,113.325,257.261,108.477,251.248,108.477z"/> </g> </g> <g> <g> <path d="M251.248,175.709H93.382c-6.012,0-10.925,4.848-10.925,10.925s4.849,10.925,10.925,10.925h157.867 c6.012,0,10.925-4.848,10.925-10.925S257.261,175.709,251.248,175.709z"/> </g> </g> <g> <g> <path d="M251.248,242.941H93.382c-6.012,0-10.925,4.849-10.925,10.925c0,6.012,4.849,10.925,10.925,10.925h157.867 c6.012,0,10.925-4.849,10.925-10.925C262.174,247.79,257.261,242.941,251.248,242.941z"/> </g> </g> <g> <g> <path d="M251.248,310.174h-81.778c-6.012,0-10.925,4.848-10.925,10.925c0,6.012,4.849,10.925,10.925,10.925h81.713 c6.012,0,10.925-4.849,10.925-10.925C262.174,315.022,257.261,310.174,251.248,310.174z"/> </g> </g> </g>
</svg>