<!DOCTYPE svg PUBLIC "-//W3C//DTD SVG 1.1//EN" "http://www.w3.org/Graphics/SVG/1.1/DTD/svg11.dtd">
<!-- Uploaded to: SVG Repo, www.svgrepo.com, Transformed by: SVG Repo Mixer Tools -->
<svg fill="#c14679" height="800px" width="800px" version="1.1" id="Layer_1" xmlns="http://www.w3.org/2000/svg" xmlns:xlink="http://www.w3.org/1999/xlink" viewBox="-51.2 -51.2 614.40 614.40" xml:space="preserve" stroke="#c14679">
<g id="SVGRepo_bgCarrier" stroke-width="0">
<path transform="translate(-51.2, -51.2), scale(19.2)" d="M16,31.758485935190144C18.548918999520662,32.12440876749515,19.730500604756404,28.367239545858126,21.517995514167907,26.51366204973138C22.820559501688866,25.162943073234345,24.379524436587687,24.020203740191953,25.12361486807179,22.29757664043139C25.815094180602372,20.696748364339758,25.02216370079274,18.81995572633275,25.5580766647758,17.16056062442749C26.26125182535565,14.98325666712944,28.92060449928493,13.45667807820236,28.714784340088716,11.177918351730373C28.520577220572424,9.027733626015706,25.98174640947514,7.95753901046889,24.57864766287227,6.316708529508432C22.955338578293116,4.418356733210094,22.0297192732253,1.7735410217660716,19.76749733486534,0.7146624507347923C17.443256861745013,-0.3732451454115562,14.303938639080092,-0.9302958258307057,12.183237825206856,0.5147871381132028C9.888925876690127,2.078171793357955,10.414705071381244,5.696089971669631,8.974141747242893,8.069445445784043C8.034110470509841,9.618164852345082,6.04184097905319,10.292853667674928,5.257087907773034,11.92575085323546C4.447583934053359,13.61014918025396,4.592880942785714,15.531365005071358,4.491216418709994,17.397419326916015C4.3722026464959605,19.581919436645794,3.1567669147733133,22.225959640101955,4.606666397096474,23.864250364773575C6.120219809988356,25.57446582996068,9.378054744927187,23.739661125225435,11.255261515537207,25.04034387340722C13.54197907833144,26.62476927100166,13.246239776225863,31.36315609506506,16,31.758485935190144" fill="#f0f0f0" strokewidth="0"/>
</g>
<g id="SVGRepo_tracerCarrier" stroke-linecap="round" stroke-linejoin="round"/>
<g id="SVGRepo_iconCarrier"> <g> <g> <path d="M226.932,399.948c-19.96,18.445-47.567,22.576-72.053,10.786c-8.852-4.263-16.322-10.149-22.17-17.199l-33.341,73.744 c-1.517,3.355,0.177,5.884,0.975,6.815c0.798,0.93,3.039,2.989,6.585,2.003l24.272-6.756c2.766-0.769,5.562-1.14,8.319-1.14 c11.631,0,22.578,6.583,27.849,17.492l10.962,22.685c1.601,3.315,4.604,3.646,5.854,3.621c1.226-0.016,4.242-0.414,5.758-3.769 l53.033-117.304C237.148,392.603,231.63,395.606,226.932,399.948z"/> </g> </g> <g> <g> <path d="M412.631,467.279l-33.341-73.744c-5.848,7.051-13.318,12.937-22.17,17.199c-24.487,11.79-52.093,7.659-72.053-10.786 c-4.698-4.342-10.216-7.345-16.045-9.022l53.033,117.304c1.517,3.356,4.533,3.753,5.758,3.769c1.25,0.025,4.253-0.306,5.854-3.621 l10.962-22.685c5.27-10.909,16.218-17.492,27.849-17.492c2.757,0,5.554,0.371,8.319,1.14l24.272,6.756 c3.546,0.987,5.788-1.072,6.585-2.003C412.454,473.162,414.148,470.633,412.631,467.279z"/> </g> </g> <g> <g> <path d="M438.821,207.791c-27.69-18.96-36.282-56.605-19.56-85.702c10.051-17.491,4.82-34.775-3.427-45.118 c-8.248-10.34-23.936-19.285-43.223-13.38c-32.084,9.827-66.877-6.925-79.201-38.141C286.002,6.686,269.227,0,256,0 c-13.227,0-30.002,6.686-37.41,25.451c-12.324,31.217-47.114,47.967-79.201,38.141c-19.289-5.904-34.974,3.039-43.223,13.38 c-8.247,10.343-13.478,27.625-3.427,45.118c16.722,29.096,8.13,66.742-19.56,85.702c-16.646,11.399-19.431,29.24-16.489,42.136 c2.942,12.896,13.194,27.761,33.137,30.808c33.174,5.068,57.248,35.256,54.809,68.727c-1.468,20.121,10.745,33.423,22.662,39.163 c11.918,5.739,29.932,6.995,44.748-6.698c12.322-11.387,28.141-17.083,43.953-17.083c15.818,0,31.628,5.693,43.952,17.083 c14.818,13.694,32.833,12.438,44.75,6.698c11.917-5.739,24.129-19.041,22.662-39.162c-2.439-33.471,21.635-63.659,54.809-68.728 c19.943-3.047,30.193-17.913,33.137-30.808C458.252,237.03,455.465,219.189,438.821,207.791z M256,335.923 c-72.575,0-131.619-59.044-131.619-131.619S183.424,72.684,256,72.684c72.576,0,131.619,59.044,131.619,131.619 C387.618,276.878,328.575,335.923,256,335.923z"/> </g> </g> <g> <g> <path d="M255.999,97.225c-59.044,0-107.079,48.036-107.079,107.079c0,59.043,48.034,107.079,107.079,107.079 s107.079-48.036,107.079-107.079S315.043,97.225,255.999,97.225z M310.874,193.922l-66.642,48.675 c-2.115,1.545-4.653,2.362-7.237,2.362c-0.666,0-1.335-0.054-2.001-0.164c-3.249-0.537-6.147-2.358-8.041-5.054l-19.934-28.382 c-3.895-5.547-2.556-13.2,2.989-17.095c5.546-3.895,13.198-2.557,17.094,2.989l12.75,18.154l56.548-41.302 c5.473-3.995,13.15-2.803,17.146,2.671C317.543,182.248,316.346,189.924,310.874,193.922z"/> </g> </g> </g>
</svg>